<?xml version="1.0" standalone="no"?>
<!DOCTYPE svg PUBLIC "-//W3C//DTD SVG 20010904//EN"
 "http://www.w3.org/TR/2001/REC-SVG-20010904/DTD/svg10.dtd">
<svg version="1.0" xmlns="http://www.w3.org/2000/svg"
 width="201.000000pt" height="217.000000pt" viewBox="0 0 201.000000 217.000000"
 preserveAspectRatio="xMidYMid meet">

<g transform="translate(0.000000,217.000000) scale(0.100000,-0.100000)"
fill="#000000" stroke="none">
<path d="M782 2044 c-29 -14 -63 -39 -74 -55 -12 -15 -35 -31 -52 -35 -54 -12
-106 -52 -126 -97 -15 -35 -417 -1334 -491 -1589 -26 -87 -21 -113 28 -145 23
-15 50 -18 188 -18 187 0 215 7 277 71 23 24 51 44 61 44 27 0 72 26 98 57 16
19 49 110 98 273 40 135 78 251 84 258 12 15 30 15 81 1 54 -15 96 -59 96 -99
0 -18 -32 -136 -71 -262 -78 -255 -82 -288 -36 -322 26 -19 42 -21 190 -21
188 0 233 12 291 76 19 22 42 39 52 39 26 0 102 48 115 72 16 30 125 387 140
456 20 100 -1 210 -56 292 -19 29 -35 53 -35 54 0 2 24 19 54 40 118 81 229
225 266 347 32 102 26 241 -13 320 -52 107 -161 194 -302 240 -67 22 -85 23
-440 27 l-370 3 -53 -27z m802 1 c152 -32 295 -135 353 -254 39 -78 45 -218
14 -306 -43 -121 -153 -263 -265 -340 -31 -21 -56 -45 -56 -52 0 -8 11 -29 25
-47 66 -86 88 -197 62 -312 -22 -94 -112 -386 -132 -423 -16 -31 -80 -75 -126
-86 -15 -4 -36 -20 -48 -36 -12 -16 -40 -39 -64 -51 -38 -21 -56 -22 -204 -23
-149 0 -164 2 -190 21 -17 13 -29 32 -31 50 -1 16 29 132 68 259 38 126 70
246 70 266 0 51 -31 85 -92 104 -67 20 -95 19 -107 -2 -5 -10 -37 -110 -70
-223 -34 -113 -69 -224 -78 -248 -19 -51 -69 -97 -120 -111 -22 -6 -54 -28
-76 -50 -56 -58 -89 -66 -262 -66 -129 0 -155 3 -178 18 -47 31 -52 54 -27
138 35 121 200 661 214 704 8 22 26 81 41 130 14 50 32 108 40 130 7 22 25 81
40 130 15 50 33 108 40 130 8 22 26 81 41 130 42 140 64 207 80 237 17 32 81
76 124 84 16 4 36 17 45 30 8 13 39 37 68 54 l52 30 340 0 c259 0 356 -4 409
-15z"/>
<path d="M652 1914 c-24 -9 -52 -29 -66 -47 -12 -18 -42 -97 -66 -177 -23 -80
-83 -275 -132 -435 -49 -159 -98 -318 -109 -352 -10 -35 -28 -92 -39 -128 -11
-36 -29 -93 -39 -127 -11 -35 -45 -145 -76 -246 -31 -100 -55 -192 -53 -205 6
-42 58 -57 203 -57 148 0 203 16 228 67 8 15 38 107 67 203 29 96 91 299 137
450 47 151 93 303 104 338 10 34 27 90 38 125 10 34 27 88 36 120 51 165 264
262 396 178 79 -50 88 -121 26 -203 -41 -54 -140 -106 -217 -115 -71 -8 -132
-36 -152 -71 -8 -15 -35 -91 -58 -169 -53 -175 -51 -185 37 -203 123 -25 183
-70 183 -136 0 -19 -32 -136 -70 -261 -45 -145 -70 -240 -68 -262 5 -55 28
-62 198 -59 161 3 198 15 230 73 18 34 114 342 131 424 22 105 -4 211 -74 302
l-35 47 91 69 c106 80 175 160 222 258 123 259 1 507 -290 591 -87 25 -718 31
-783 8z m788 -22 c299 -98 406 -357 253 -609 -58 -95 -105 -146 -203 -219 -50
-37 -90 -71 -90 -76 0 -4 16 -29 37 -55 62 -81 77 -127 77 -223 -1 -75 -8
-107 -61 -278 -34 -106 -68 -203 -77 -217 -34 -52 -59 -60 -211 -63 -157 -3
-188 5 -193 50 -2 15 29 130 67 256 39 126 71 247 71 269 0 71 -52 115 -158
134 -63 12 -102 32 -102 53 0 24 81 280 98 308 22 37 78 65 147 71 174 17 306
167 249 284 -71 142 -375 91 -447 -74 -9 -21 -100 -312 -203 -648 -102 -335
-192 -622 -200 -636 -28 -55 -56 -64 -209 -67 -144 -3 -176 3 -198 39 -15 25
478 1628 513 1670 47 56 71 59 440 56 311 -3 340 -5 400 -25z"/>
<path d="M1107 1613 c-3 -5 -24 -68 -47 -142 -33 -107 -39 -135 -28 -142 9 -6
21 0 38 20 41 46 100 77 163 85 62 8 77 22 77 73 -1 69 -57 113 -142 113 -31
0 -59 -3 -61 -7z m136 -21 c38 -25 56 -52 57 -83 0 -40 -20 -58 -75 -65 -62
-8 -119 -36 -156 -77 -16 -17 -30 -29 -32 -26 -5 4 66 240 77 258 11 18 98 13
129 -7z"/>
</g>
</svg>
